<svg xmlns="http://www.w3.org/2000/svg" viewBox="209 139 799 987" width="100%" role="img" aria-label="Gill Makes Stuff crow"><path fill="#2d4630" fill-rule="evenodd" d="M682.0 1098.7C671.4 1092.4 658.3 1086.4 645.5 1082.1L633.5 1078.1L607.6 1082.1C593.3 1084.3 581.2 1085.9 580.6 1085.7C578.9 1085.1 591.8 1076.1 600.3 1071.9C604.7 1069.8 612.4 1067.1 617.6 1065.9C622.8 1064.7 627.0 1063.6 627.0 1063.4C627.0 1061.3 609.8 1026.7 595.8 1000.8L586.8 984.0L583.1 984.0C578.3 984.0 572.1 982.2 568.8 979.8C565.2 977.3 564.4 972.7 566.0 963.2C569.3 943.4 566.0 925.3 557.0 914.0L554.0 910.3L563.8 905.6C614.0 881.4 645.5 853.7 667.7 814.5C671.8 807.2 677.2 796.0 676.5 796.0C676.3 796.0 673.8 799.3 670.9 803.2C652.1 828.9 628.0 852.7 598.5 875.0C587.3 883.4 558.1 903.1 546.0 910.5C539.1 914.7 531.3 921.3 512.8 938.6C455.9 991.9 397.6 1039.4 359.5 1063.6C344.6 1073.1 343.9 1073.3 330.0 1073.8C315.1 1074.3 305.2 1072.7 288.1 1067.0C272.1 1061.8 249.5 1050.5 234.1 1040.2C233.1 1039.5 239.1 1033.0 258.1 1014.2C272.0 1000.4 283.2 988.9 283.0 988.7C282.7 988.5 277.3 988.9 271.0 989.6C264.7 990.3 254.3 990.9 248.0 990.9L236.5 991.0L253.5 982.2C271.5 972.9 299.6 957.4 306.8 952.9L311.1 950.2L290.3 950.7C269.7 951.2 258.0 950.2 245.7 946.9L241.8 945.9L252.2 939.3C333.2 887.7 404.0 822.4 444.7 761.5C462.7 734.6 473.2 715.5 507.0 648.0C555.7 550.8 574.5 516.5 595.7 485.8C608.5 467.2 621.4 452.1 648.8 423.3C679.5 391.0 688.5 379.8 696.0 365.0C698.6 359.8 700.4 354.8 700.7 351.6C701.2 347.1 700.9 346.0 698.6 343.3C694.8 338.8 688.6 337.6 673.6 338.3C644.4 339.8 602.3 350.4 561.3 366.6C529.6 379.1 513.6 387.7 492.7 403.3C485.7 408.5 480.0 412.6 480.0 412.4C480.0 411.2 484.8 402.8 489.2 396.0C509.3 365.7 544.2 335.3 605.0 295.2C649.8 265.7 653.2 263.3 663.2 255.3L673.0 247.6L678.2 232.0C681.0 223.5 685.4 208.0 688.0 197.6L692.7 178.8L694.9 182.3C697.2 186.1 701.0 196.3 701.0 198.9C701.0 199.8 701.4 201.1 701.9 201.9C702.6 203.0 703.5 202.4 706.1 199.4C717.4 186.1 738.2 167.0 741.4 167.0C741.8 167.0 741.9 170.2 741.5 174.0C741.1 177.8 741.2 181.0 741.6 181.0C742.1 181.0 746.3 178.7 751.0 175.9C760.8 170.0 774.7 163.0 776.8 163.0C778.3 163.0 778.1 166.6 776.4 171.9C775.8 174.0 775.9 174.2 777.5 173.7C781.8 172.0 807.4 167.8 816.5 167.3L826.5 166.7L823.8 170.1C822.2 172.0 820.1 174.7 819.0 176.1L817.0 178.8L825.3 180.0C829.8 180.6 836.4 181.8 840.0 182.6C848.7 184.5 866.0 190.1 866.0 191.0C866.0 191.4 863.5 192.8 860.5 194.0C857.5 195.2 855.0 196.5 855.0 196.9C855.0 197.2 857.3 198.8 860.0 200.3C886.6 215.2 908.3 247.4 915.2 282.3C917.0 291.3 917.4 296.8 917.4 310.0C917.3 324.5 916.8 329.1 913.6 347.5C910.3 366.0 909.9 369.8 910.3 379.5C910.9 392.6 913.6 403.5 918.9 414.6C923.8 424.8 928.6 432.0 942.3 449.2C964.2 476.7 974.4 497.8 980.4 528.0C987.9 565.6 985.9 600.4 973.5 648.5C959.2 703.8 929.9 770.8 892.2 834.5C888.6 840.5 882.1 852.0 877.7 860.0C856.1 899.4 831.1 934.7 806.0 961.5C797.4 970.6 795.9 977.3 799.9 989.3C803.5 1000.1 820.3 1032.3 823.1 1033.8C825.9 1035.3 829.2 1035.0 849.5 1031.9C865.3 1029.5 879.5 1029.8 889.0 1032.6C894.4 1034.2 913.0 1042.5 913.0 1043.3C913.0 1043.5 909.6 1043.5 905.5 1043.2C894.4 1042.6 841.1 1046.5 842.5 1047.8C842.8 1048.1 848.3 1049.9 854.8 1051.7C861.2 1053.5 868.8 1056.2 871.6 1057.5C877.7 1060.5 888.5 1070.8 891.8 1076.7L894.1 1080.9L884.7 1077.1C870.7 1071.4 861.2 1068.4 842.5 1064.0C818.6 1058.4 818.6 1058.3 814.8 1054.7C811.9 1051.9 810.8 1051.5 806.5 1051.6C803.8 1051.7 790.1 1054.5 776.1 1057.8C762.1 1061.2 750.5 1063.8 750.2 1063.6C749.7 1063.0 761.8 1053.1 768.0 1049.1C774.9 1044.7 785.2 1040.7 795.5 1038.5C799.9 1037.5 803.6 1036.6 803.8 1036.5C804.0 1036.3 793.7 1014.0 783.0 991.3C779.7 984.4 779.4 984.1 775.3 983.5C768.0 982.4 766.6 980.5 766.5 971.4C766.3 960.1 763.9 954.1 756.3 946.0C747.8 936.9 729.0 927.0 704.9 918.9C693.9 915.2 691.0 915.3 684.1 919.1C663.6 930.7 626.3 958.7 612.5 972.9L608.6 977.0L610.9 987.2C613.5 998.6 621.2 1016.2 635.9 1044.5L644.8 1061.5L648.6 1061.7C675.3 1063.4 686.1 1065.4 695.0 1070.6C700.0 1073.4 711.9 1082.2 712.0 1083.0C712.0 1083.3 705.1 1082.5 696.8 1081.3C688.4 1080.1 680.0 1079.1 678.1 1079.0L674.7 1079.0L679.4 1084.0C684.1 1089.1 689.4 1098.8 688.8 1101.3C688.6 1102.2 686.5 1101.5 682.0 1098.7ZM947.9 681.2C958.8 651.8 964.1 631.8 968.0 606.0C974.4 563.0 969.4 522.6 953.8 491.5C949.3 482.7 938.1 465.8 932.5 459.5C928.1 454.7 928.2 454.9 934.7 467.5C946.0 489.7 952.7 511.9 957.6 544.0C959.8 558.0 960.1 597.3 958.1 612.0C954.4 640.1 948.6 668.7 942.5 689.6C940.6 696.1 939.0 701.7 939.0 702.0C939.2 703.5 942.7 695.2 947.9 681.2ZM593.3 339.8C619.1 327.0 650.6 314.4 676.6 306.6C690.7 302.4 695.5 301.4 710.9 299.5C717.2 298.7 722.5 297.9 722.7 297.7C724.1 296.2 686.2 295.5 682.8 297.0C681.5 297.5 674.2 300.1 666.5 302.9C642.2 311.5 623.3 320.0 597.9 333.7C576.4 345.4 543.0 365.9 543.0 367.4C543.0 367.7 550.8 363.3 560.2 357.8C569.7 352.3 584.6 344.2 593.3 339.8ZM771.1 277.6C774.8 276.8 779.7 275.2 782.1 274.0C788.6 270.7 799.0 262.0 799.0 259.8C799.0 257.5 790.0 249.7 783.7 246.5C777.6 243.5 775.8 243.0 769.4 243.0C763.8 243.0 760.7 243.6 756.7 245.4C749.1 248.7 748.4 250.3 754.9 249.4C760.6 248.7 762.9 249.9 765.6 255.2C770.4 264.4 761.9 275.8 751.1 274.7C747.5 274.3 747.0 274.4 748.6 275.3C750.8 276.5 759.5 278.8 762.5 278.9C763.6 278.9 767.5 278.3 771.1 277.6ZM740.8 267.4C739.5 264.3 739.0 261.6 739.3 259.4C740.0 255.1 739.2 255.1 735.1 259.4L731.9 262.7L737.2 267.3C740.1 269.9 742.6 272.0 742.7 272.0C742.8 272.0 742.0 269.9 740.8 267.4Z"/></svg>